# xmcd
#
# Track frame offsets: 
#        150
#        29506
#        47056
#        58742
#        83503
#        106742
#        130056
#        149764
#        176415
#        197062
#        226354
#        244607
#        264330
#        292407
#        308319
#
# Disc length: 4473 seconds
#
# Revision: 0
# Processed by: cddbd v1.5.2PL0 Copyright (c) Steve Scherf et al.
# Submitted via: ExactAudioCopy v1.0b1
#
DISCID=cf11770f
DTITLE=Iwan Fals - Salam Reformasi
DYEAR=1998
DGENRE=Pop
TTITLE0=Surat Buat Wakil Rakyat
TTITLE1=Galang Rambu Anarki
TTITLE2=Tikus Tikus Kantor
TTITLE3=P.H.K
TTITLE4=Ujung Aspal Pondok Gede
TTITLE5=Serdadu
TTITLE6=Bangunlah Putra Putri Pertiwi
TTITLE7=Celoteh Camar Tolol and Cemar
TTITLE8=Libur Kecil Kaum Kusam
TTITLE9=Sumbang
TTITLE10=Bung Hatta
TTITLE11=Kereta Tiba Pukul Berapa
TTITLE12=Jangan Bicara
TTITLE13=Tince Sukarti Binti Machmud
TTITLE14=Siang Seberang Istana
EXTD=
EXTT0=
EXTT1=
EXTT2=
EXTT3=
EXTT4=
EXTT5=
EXTT6=
EXTT7=
EXTT8=
EXTT9=
EXTT10=
EXTT11=
EXTT12=
EXTT13=
EXTT14=
PLAYORDER=
